<?xml version="1.0" encoding="UTF-8"?>
<svg width="20px" height="14px" viewBox="0 0 20 14" version="1.1" xmlns="http://www.w3.org/2000/svg" xmlns:xlink="http://www.w3.org/1999/xlink">
    <!-- Generator: Sketch 61.2 (89653) - https://sketch.com -->
    <title>Group</title>
    <desc>Created with Sketch.</desc>
    <g id="Page-1" stroke="none" stroke-width="1" fill="none" fill-rule="evenodd">
        <g id="IDMBnet_ModuleTaikhoan_ChangePW" transform="translate(-1055.000000, -684.000000)">
            <g id="Group-67" transform="translate(461.000000, 548.000000)">
                <g id="Group" transform="translate(594.000000, 137.000000)">
                    <g id="eye" fill="#444444" fill-rule="nonzero">
                        <path d="M9.99693252,0.0296928328 C6.17689162,0.0296928328 2.71267894,2.1225256 0.156441718,5.521843 C-0.0521472393,5.8003413 -0.0521472393,6.1894198 0.156441718,6.46791809 C2.71267894,9.87133106 6.17689162,11.9641638 9.99693252,11.9641638 C13.8169734,11.9641638 17.2811861,9.87133106 19.8374233,6.47201365 C20.0460123,6.19351536 20.0460123,5.80443686 19.8374233,5.52593857 C17.2811861,2.1225256 13.8169734,0.0296928328 9.99693252,0.0296928328 Z M10.2709611,10.1989761 C7.73517382,10.3587031 5.64110429,8.26587031 5.8006135,5.7225256 C5.93149284,3.62559727 7.62883436,1.92593857 9.72290389,1.79488055 C12.2586912,1.63515358 14.3527607,3.72798635 14.1932515,6.27133106 C14.0582822,8.36416382 12.3609407,10.0638225 10.2709611,10.1989761 Z M10.1441718,8.25767918 C8.77811861,8.34368601 7.64928425,7.21740614 7.7392638,5.84948805 C7.80879346,4.71911263 8.72494888,3.80580205 9.85378323,3.73208191 C11.2198364,3.64607509 12.3486708,4.77235495 12.2586912,6.14027304 C12.1850716,7.27474403 11.2689162,8.18805461 10.1441718,8.25767918 Z" id="Shape"></path>
                    </g>
                    <line x1="1.2" y1="0" x2="18.8" y2="12" id="Line" stroke="#444444" stroke-linecap="square"></line>
                </g>
            </g>
        </g>
    </g>
</svg>