<?xml version="1.0" encoding="UTF-8"?>
<svg width="53px" height="30px" viewBox="0 0 53 30" version="1.1" xmlns="http://www.w3.org/2000/svg" xmlns:xlink="http://www.w3.org/1999/xlink">
    <!-- Generator: Sketch 61.2 (89653) - https://sketch.com -->
    <title>Group 19</title>
    <desc>Created with Sketch.</desc>
    <defs>
        <polygon id="path-1" points="0 0.0916149068 9.89215572 0.0916149068 9.89215572 2.15838509 0 2.15838509"></polygon>
        <polygon id="path-3" points="0.0714694336 0.0169431438 40.0731374 0.0169431438 40.0731374 29.5652174 0.0714694336 29.5652174"></polygon>
    </defs>
    <g id="Page-1" stroke="none" stroke-width="1" fill="none" fill-rule="evenodd">
        <g id="WPHelper_SMTPMail_Dakichhoat" transform="translate(-735.000000, -441.000000)">
            <g id="Group-19" transform="translate(735.000000, 441.000000)">
                <path d="M51.7073171,5.2173913 L51.7073171,25.0229727 C51.7077561,25.3845129 51.6513387,25.7441148 51.5398286,26.0869565 L40.0731707,14.594974 L51.6755176,5.2173913 L51.7073171,5.2173913 Z" id="Fill-1" fill="#FDDD4A"></path>
                <path d="M26.2845528,14.6402275 L26.2578843,14.6754535 L14.3685422,26.0869565 C14.2697118,25.7622599 14.2195122,25.4246394 14.2195122,25.0847315 L14.2195122,5.2173913 L14.2431553,5.2173913 L26.2845528,14.6402275 Z" id="Fill-3" fill="#FDDD4A"></path>
                <path d="M39.9643372,14.8075267 L35.6421816,18.249678 C34.1629424,19.4240204 32.0888426,19.4240204 30.6096033,18.249678 L26.2183556,14.8234069 L14.2429144,5.47801022 L14.2195122,5.47801022 L14.2195122,4.63669879 C14.2195122,2.79584088 15.6860474,1.30434783 17.4946999,1.30434783 L48.4333552,1.30434783 C50.2415619,1.30468812 51.7068713,2.7962946 51.7073171,4.63669879 L51.7073171,5.47801022 L51.6752227,5.47801022 L39.9643372,14.8075267 Z" id="Fill-5" fill="#3FC1D0"></path>
                <path d="M40.0346366,14.7826087 L51.7073171,26.0248843 C51.2559601,27.3606532 49.9950602,28.2604234 48.5759156,28.2608696 L17.3732792,28.2608696 C15.9287346,28.2604234 14.6516505,27.3293113 14.2195122,25.9614197 L26.1447323,14.8325773 L26.1713687,14.7982239 L30.6000843,18.1673151 C32.091945,19.3220592 34.1837419,19.3220592 35.6756026,18.1673151 L40.0346366,14.7826087 Z" id="Fill-7" fill="#52BEA0"></path>
                <path d="M8.79178638,12.6086957 L6.28940237,12.6086957 C5.67156713,12.6086957 5.17073171,13.0952837 5.17073171,13.6956522 C5.17073171,14.2955851 5.67156713,14.7826087 6.28940237,14.7826087 L8.79178638,14.7826087 C9.40973368,14.7826087 9.91056911,14.2955851 9.91056911,13.6956522 C9.91056911,13.0952837 9.40973368,12.6086957 8.79178638,12.6086957" id="Fill-9" fill="#000000"></path>
                <g id="Group-13" transform="translate(0.000000, 18.695652)">
                    <mask id="mask-2" fill="white">
                        <use xlink:href="#path-1"></use>
                    </mask>
                    <g id="Clip-12"></g>
                    <path d="M8.76786923,0.0916149068 L1.12423018,0.0916149068 C0.503242932,0.0916149068 -5.63100517e-05,0.554244306 -5.63100517e-05,1.12494824 C-5.63100517e-05,1.69575569 0.503242932,2.15838509 1.12423018,2.15838509 L8.76786923,2.15838509 C9.38885648,2.15838509 9.89215572,1.69575569 9.89215572,1.12494824 C9.89215572,0.554244306 9.38885648,0.0916149068 8.76786923,0.0916149068" id="Fill-11" fill="#000000" mask="url(#mask-2)"></path>
                </g>
                <path d="M8.80552174,5.65217391 L2.39773029,5.65217391 C1.78736956,5.65217391 1.29268293,6.13878635 1.29268293,6.73918488 C1.29268293,7.3395834 1.78736956,7.82608696 2.39773029,7.82608696 L8.80552174,7.82608696 C9.41588247,7.82608696 9.91056911,7.3395834 9.91056911,6.73918488 C9.91056911,6.13878635 9.41588247,5.65217391 8.80552174,5.65217391" id="Fill-14" fill="#000000"></path>
                <g id="Group-18" transform="translate(12.926829, 0.000000)">
                    <mask id="mask-4" fill="white">
                        <use xlink:href="#path-3"></use>
                    </mask>
                    <g id="Clip-17"></g>
                    <path d="M35.6548735,27.2948925 L4.49107994,27.2948925 C3.77672235,27.2971559 3.10737693,26.9431692 2.70080823,26.3486809 L13.3579144,16.196895 L17.0119814,19.0348147 C18.9073189,20.5344535 21.5668529,20.5335438 23.4612924,19.0335639 L27.0445298,16.1924602 L37.4149501,26.3875706 C37.0052384,26.9578381 36.3508222,27.2953365 35.6548735,27.2948925 L35.6548735,27.2948925 Z M2.31253625,23.6019585 L2.31253625,7.61888829 L11.5554075,14.7974368 L2.31253625,23.6019585 Z M4.49107994,2.28725619 L35.6548735,2.28725619 C36.8568442,2.28850702 37.8308355,3.2751893 37.8320702,4.4928214 L37.8320702,4.75754381 L22.0816304,17.244186 C20.99393,18.1036241 19.4680066,18.1013498 18.3830002,17.2385003 L2.31253625,4.75799866 L2.31253625,4.4928214 C2.31433225,3.27473445 3.28866032,2.28805217 4.49107994,2.28725619 L4.49107994,2.28725619 Z M28.8260461,14.7806074 L37.8320702,7.64015251 L37.8320702,23.6348214 L28.8260461,14.7806074 Z M35.6548735,0.0168749164 L4.49107994,0.0168749164 C2.05166777,0.0196040134 0.0745001776,2.02162408 0.0714694336,4.4928214 L0.0714694336,25.0893164 C0.0714694336,25.5420054 0.1392683,25.9920789 0.271498538,26.4248682 C0.843523406,28.2973699 2.55589377,29.5717445 4.49107994,29.5652875 L35.6548735,29.5652875 C38.0951837,29.5661726 40.0740351,27.5614234 40.0731374,25.0893164 L40.0731374,4.4928214 C40.0705553,2.02207893 38.093949,0.0196040134 35.6548735,0.0168749164 L35.6548735,0.0168749164 Z" id="Fill-16" fill="#000000" mask="url(#mask-4)"></path>
                </g>
            </g>
        </g>
    </g>
</svg>