<?xml version="1.0" encoding="UTF-8"?>
<svg width="16px" height="10px" viewBox="0 0 16 10" version="1.1" xmlns="http://www.w3.org/2000/svg" xmlns:xlink="http://www.w3.org/1999/xlink">
    <!-- Generator: Sketch 61.2 (89653) - https://sketch.com -->
    <title>hienmatkhau</title>
    <desc>Created with Sketch.</desc>
    <g id="Page-1" stroke="none" stroke-width="1" fill="none" fill-rule="evenodd">
        <g id="WPHelper_SMTPMail_Dakichhoat" transform="translate(-825.000000, -1158.000000)" fill="#444444" fill-rule="nonzero">
            <g id="hienmatkhau" transform="translate(825.000000, 1158.000000)">
                <path d="M7.99754602,0.0247440273 C4.9415133,0.0247440273 2.17014315,1.76877133 0.125153374,4.60153583 C-0.0417177914,4.83361775 -0.0417177914,5.15784983 0.125153374,5.38993174 C2.17014315,8.22610922 4.9415133,9.9701365 7.99754602,9.9701365 C11.0535787,9.9701365 13.8249489,8.22610922 15.8699386,5.39334471 C16.0368098,5.1612628 16.0368098,4.83703072 15.8699386,4.60494881 C13.8249489,1.76877133 11.0535787,0.0247440273 7.99754602,0.0247440273 Z M8.21676888,8.49914675 C6.18813906,8.63225258 4.51288343,6.88822526 4.6404908,4.76877133 C4.74519427,3.02133106 6.10306749,1.60494881 7.77832311,1.49573379 C9.80695296,1.36262798 11.4822086,3.10665529 11.3546012,5.22610922 C11.2466258,6.97013652 9.88875256,8.38651875 8.21676888,8.49914675 Z M8.11533744,6.88139932 C7.02249489,6.95307168 6.1194274,6.01450512 6.19141104,4.87457338 C6.24703477,3.93259386 6.9799591,3.17150171 7.88302658,3.11006826 C8.97586912,3.03839591 9.87893664,3.97696246 9.80695296,5.1168942 C9.74805728,6.06228669 9.01513296,6.82337884 8.11533744,6.88139932 Z" id="Shape"></path>
            </g>
        </g>
    </g>
</svg>