<?xml version="1.0" encoding="UTF-8"?>
<svg width="40px" height="30px" viewBox="0 0 40 30" version="1.1" xmlns="http://www.w3.org/2000/svg" xmlns:xlink="http://www.w3.org/1999/xlink">
    <!-- Generator: Sketch 61.2 (89653) - https://sketch.com -->
    <title>Yandex Mail Logo (SVG) - Vector69Com</title>
    <desc>Created with Sketch.</desc>
    <g id="Page-1" stroke="none" stroke-width="1" fill="none" fill-rule="evenodd">
        <g id="WPHelper_SMTPMail_Dakichhoat" transform="translate(-611.000000, -441.000000)">
            <g id="Yandex-Mail-Logo-(SVG)---Vector69Com" transform="translate(611.000000, 441.000000)">
                <path d="M16.352,15.0807692 C18.8388571,17.3053846 20.816,17.1830769 23.472,15.0807692 C28.9897143,19.8946154 34.2811429,24.8123077 39.7988571,29.6261538 C39.7988571,29.7138462 39.7988571,29.9053846 39.7988571,29.9907692 C26.5325714,29.9930769 13.2662857,29.9953846 0,29.9976923 C0,29.9215385 0,29.7461538 0,29.67 C5.51542857,24.8353846 10.8365714,19.9153846 16.352,15.0807692 Z" id="Path" fill="#F2C102"></path>
                <path d="M16.5485714,15.2607692 C18.9234286,17.3330769 20.5828571,17.6238462 23.2457143,15.2884615 C28.7634286,10.2415385 34.2811429,5.19692308 39.7988571,0.15 C39.7988571,0.0992307692 39.7988571,0.0484615385 39.7988571,0 C26.5325714,0 13.2662857,0 0,0 C0,0.06 0,0.117692308 0,0.177692308 C5.51542857,5.20615385 11.0331429,10.2346154 16.5485714,15.2630769 L16.5485714,15.2607692 Z" id="Path" fill="#EE0000"></path>
                <polygon id="Path" fill="#FFCC01" points="16.5485714 15.2607692 0 29.7669231 0 0.175384615"></polygon>
                <polygon id="Path" fill="#FFCC01" points="23.2457143 15.2861538 39.7988571 0.147692308 39.7988571 29.73"></polygon>
            </g>
        </g>
    </g>
</svg>