<?xml version="1.0" encoding="UTF-8"?>
<svg width="404px" height="302px" viewBox="0 0 404 302" version="1.1" xmlns="http://www.w3.org/2000/svg" xmlns:xlink="http://www.w3.org/1999/xlink">
    <!-- Generator: Sketch 61.2 (89653) - https://sketch.com -->
    <title>Group 2</title>
    <desc>Created with Sketch.</desc>
    <g id="Page-1" stroke="none" stroke-width="1" fill="none" fill-rule="evenodd">
        <g id="WPHelper_Woocommerce_Tooltip_Xemtruoc" transform="translate(-1115.000000, -599.000000)">
            <g id="Group-2" transform="translate(1115.000000, 600.000000)">
                <g id="Group-11-Copy-2">
                    <path d="M389.377484,300 L0,300 L0,0 L389.377484,0 C396.900518,0 403,5.35663562 403,11.960113 L403,288.039887 C403,294.646354 396.900518,300 389.377484,300" id="Fill-1" fill-opacity="0.5" fill="#F0EFF0"></path>
                    <path d="M15.0733198,0 L389.371203,0 C396.89941,0 403,5.35514061 403,11.960113 L403,288.039887 C403,294.644859 396.89941,300 389.371203,300 L10,300" id="Stroke-9" stroke="#9F9F9F" stroke-width="2" stroke-linecap="round" stroke-linejoin="round" stroke-dasharray="5.956,5.956"></path>
                </g>
                <g id="Group-64" transform="translate(217.000000, 174.000000)">
                    <rect id="Rectangle-Copy-69" fill="#62B755" x="0" y="0" width="150" height="30" rx="2"></rect>
                    <g id="Group-63" transform="translate(10.000000, 5.000000)" fill="#FFFFFF">
                        <text id="Thêm-vào-giỏ-hàng" font-family="Roboto-Bold, Roboto" font-size="11" font-weight="bold" line-spacing="17" letter-spacing="0.6875">
                            <tspan x="19.0812988" y="10">Thêm vào giỏ hàng</tspan>
                        </text>
                        <g id="cart" transform="translate(0.000000, 3.000000)" fill-rule="nonzero">
                            <path d="M13.6295754,1.89193636 C13.4438435,1.66017273 13.1677878,1.52727273 12.872261,1.52727273 L2.31859225,1.52727273 L2.22434713,0.846109091 C2.15760482,0.363763636 1.74308854,0 1.26012624,0 L0.432689225,0 C0.1937366,0 -1.50990331e-14,0.195381818 -1.50990331e-14,0.436363636 C-1.50990331e-14,0.677345455 0.1937366,0.872727273 0.432689225,0.872727273 L1.26012624,0.872727273 C1.3137797,0.872727273 1.3598611,0.913145455 1.36724386,0.966736364 L2.5352073,9.40843636 C2.60194961,9.89080909 3.01646589,10.2545455 3.49942819,10.2545455 L3.96859852,10.2545455 C3.92057002,10.3911273 3.89417598,10.5379364 3.89417598,10.6909091 C3.89417598,11.4127364 4.47649455,12 5.19224365,12 C5.90799276,12 6.49031133,11.4127364 6.49031133,10.6909091 C6.49031133,10.5379364 6.46391728,10.3911273 6.41588878,10.2545455 L8.72818,10.2545455 C8.68015149,10.3911273 8.65375745,10.5379364 8.65375745,10.6909091 C8.65375745,11.4127364 9.23607602,12 9.95182512,12 C10.6675742,12 11.2498928,11.4127364 11.2498928,10.6909091 C11.2498928,10.5379364 11.2234988,10.3911273 11.1754702,10.2545455 L12.1152983,10.2545455 C12.3542509,10.2545455 12.5479875,10.0591636 12.5479875,9.81818182 C12.5479875,9.5772 12.3542509,9.38181818 12.1152983,9.38181818 L3.49945523,9.38181818 C3.44580177,9.38181818 3.39972037,9.3414 3.39233761,9.28780909 L3.28459799,8.50909091 L11.8059255,8.50909091 C12.2618177,8.50909091 12.6621904,8.18277273 12.757977,7.73296364 L13.8242585,2.71486364 C13.8862142,2.42356364 13.8152531,2.12361818 13.6295754,1.89193636 L13.6295754,1.89193636 Z M5.62495992,10.6909091 C5.62495992,10.9315091 5.43084472,11.1272727 5.19227069,11.1272727 C4.95369667,11.1272727 4.75958147,10.9315091 4.75958147,10.6909091 C4.75958147,10.4503091 4.95369667,10.2545455 5.19227069,10.2545455 C5.43084472,10.2545455 5.62495992,10.4502818 5.62495992,10.6909091 Z M10.3845414,10.6909091 C10.3845414,10.9315091 10.1904262,11.1272727 9.95185217,11.1272727 C9.71327814,11.1272727 9.51916294,10.9315091 9.51916294,10.6909091 C9.51916294,10.4503091 9.71327814,10.2545455 9.95185217,10.2545455 C10.1904262,10.2545455 10.3845414,10.4502818 10.3845414,10.6909091 Z M12.9781076,2.53191818 L11.9118532,7.54990909 C11.9011983,7.59998182 11.8566313,7.63633636 11.8059255,7.63633636 L3.16382361,7.63633636 L2.43933959,2.39997273 L12.872234,2.39997273 C12.9150432,2.39997273 12.9417077,2.42200909 12.9565273,2.4405 C12.9713198,2.45896364 12.9870589,2.48980909 12.9781076,2.53191818 L12.9781076,2.53191818 Z" id="Shape"></path>
                        </g>
                    </g>
                </g>
                <text id="300.000-đ-copy" font-family="Roboto-Bold, Roboto" font-size="20" font-weight="bold" line-spacing="17" letter-spacing="1.25" fill="#333333">
                    <tspan x="217" y="99">300.000 đ</tspan>
                </text>
                <path d="M0.5,31.5 L0.5,235.5 L176,235.5 C177.932997,235.5 179.5,233.932997 179.5,232 L179.5,35 C179.5,33.0670034 177.932997,31.5 176,31.5 L0.5,31.5 Z" id="Rectangle-Copy-75" stroke="#979797" fill="#FFFFFF"></path>
                <line x1="217.5" y1="60.5" x2="332.5" y2="60.5" id="Line-2-Copy" stroke="#979797" stroke-linecap="square"></line>
                <line x1="217.5" y1="126.5" x2="363.5" y2="126.5" id="Line-2-Copy-4" stroke="#979797" stroke-linecap="square"></line>
                <line x1="217.5" y1="147.5" x2="363.5" y2="147.25" id="Line-2-Copy-5" stroke="#979797" stroke-linecap="square"></line>
            </g>
        </g>
    </g>
</svg>