<?xml version="1.0" encoding="UTF-8"?>
<svg width="404px" height="392px" viewBox="0 0 404 392" version="1.1" xmlns="http://www.w3.org/2000/svg" xmlns:xlink="http://www.w3.org/1999/xlink">
    <!-- Generator: Sketch 61.2 (89653) - https://sketch.com -->
    <title>Group 6</title>
    <desc>Created with Sketch.</desc>
    <defs>
        <linearGradient x1="0%" y1="49.2300026%" x2="100%" y2="50%" id="linearGradient-1">
            <stop stop-color="#FF6333" offset="0%"></stop>
            <stop stop-color="#F53E2D" offset="100%"></stop>
        </linearGradient>
        <linearGradient x1="-4.11719787e-05%" y1="0.131253373%" x2="0.0688428371%" y2="0.131253373%" id="linearGradient-2">
            <stop stop-color="#FF9200" offset="1e-05%"></stop>
            <stop stop-color="#F36D00" offset="29%"></stop>
            <stop stop-color="#F4680B" offset="32%"></stop>
            <stop stop-color="#F83C72" offset="57%"></stop>
            <stop stop-color="#FC1CBE" offset="78%"></stop>
            <stop stop-color="#FE08ED" offset="93%"></stop>
            <stop stop-color="#FF00FF" offset="100%"></stop>
        </linearGradient>
        <linearGradient x1="-0.0607425369%" y1="17.8413373%" x2="99.0198464%" y2="17.2222046%" id="linearGradient-3">
            <stop stop-color="#FFB900" offset="1e-05%"></stop>
            <stop stop-color="#F38000" offset="33.755317%"></stop>
            <stop stop-color="#F83C72" offset="56.728965%"></stop>
            <stop stop-color="#FC1CBE" offset="78%"></stop>
            <stop stop-color="#FE08ED" offset="93%"></stop>
            <stop stop-color="#FF00FF" offset="100%"></stop>
        </linearGradient>
        <linearGradient x1="23.6645898%" y1="12.8644718%" x2="26.1958994%" y2="2.97154011%" id="linearGradient-4">
            <stop stop-color="#EE0A3F" offset="0%"></stop>
            <stop stop-color="#EE0A3F" stop-opacity="0" offset="100%"></stop>
        </linearGradient>
        <linearGradient x1="-1.66382316%" y1="87.5169875%" x2="109.071008%" y2="5.12909646%" id="linearGradient-5">
            <stop stop-color="#EE0A3F" offset="0%"></stop>
            <stop stop-color="#EE0A3F" stop-opacity="0" offset="100%"></stop>
        </linearGradient>
        <linearGradient x1="24.5214222%" y1="10.3292933%" x2="25.7577774%" y2="3.29936707%" id="linearGradient-6">
            <stop stop-color="#ED6600" offset="0%"></stop>
            <stop stop-color="#F98200" offset="100%"></stop>
        </linearGradient>
        <linearGradient x1="35.8192186%" y1="66.404135%" x2="89.9048933%" y2="7.8592247%" id="linearGradient-7">
            <stop stop-color="#ED6600" offset="0%"></stop>
            <stop stop-color="#F98200" offset="100%"></stop>
        </linearGradient>
        <polygon id="path-8" points="0.0240698413 0.0211809524 1.54787937 0.0211809524 1.54787937 7.68253968 0.0240698413 7.68253968"></polygon>
        <polygon id="path-10" points="0.0114412698 0.0576571429 5.90610794 0.0576571429 5.90610794 7.74603175 0.0114412698 7.74603175"></polygon>
        <polygon id="path-12" points="0.0512253968 0.0211809524 1.57503492 0.0211809524 1.57503492 7.68253968 0.0512253968 7.68253968"></polygon>
        <polygon id="path-14" points="0.0325269841 0.0211809524 6.32768254 0.0211809524 6.32768254 7.68253968 0.0325269841 7.68253968"></polygon>
        <polygon id="path-16" points="1.26984127e-05 0.0211809524 5.42972698 0.0211809524 5.42972698 7.68253968 1.26984127e-05 7.68253968"></polygon>
        <polygon id="path-18" points="0 0.173160563 6.46217915 0.173160563 6.46217915 9.01399437 0 9.01399437"></polygon>
        <polygon id="path-20" points="0.124123944 0.0227515493 7.26057465 0.0227515493 7.26057465 9.1943662 0.124123944 9.1943662"></polygon>
        <polygon id="path-22" points="0.0680022535 0.115560563 3.3388169 0.115560563 3.3388169 3.34747042 0.0680022535 3.34747042"></polygon>
    </defs>
    <g id="Page-1" stroke="none" stroke-width="1" fill="none" fill-rule="evenodd">
        <g id="WPHelper_Woocommerce_LienketTMDT_preview_all" transform="translate(-1115.000000, -599.000000)">
            <g id="Group-6" transform="translate(1115.000000, 600.000000)">
                <g id="Group-11-Copy-2">
                    <path d="M389.377484,390 L0,390 L0,0 L389.377484,0 C396.900518,0 403,6.96362631 403,15.5481469 L403,374.451853 C403,383.040261 396.900518,390 389.377484,390" id="Fill-1" fill-opacity="0.5" fill="#F0EFF0"></path>
                    <path d="M15.0733198,0 L389.371203,0 C396.89941,0 403,6.96168279 403,15.5481469 L403,374.451853 C403,383.038317 396.89941,390 389.371203,390 L10,390" id="Stroke-9" stroke="#9F9F9F" stroke-width="2" stroke-linecap="round" stroke-linejoin="round" stroke-dasharray="5.956,5.956"></path>
                </g>
                <g id="Group-64" transform="translate(217.000000, 174.000000)">
                    <rect id="Rectangle-Copy-69" fill="#62B755" x="0" y="0" width="150" height="30" rx="2"></rect>
                    <g id="Group-63" transform="translate(10.000000, 5.000000)" fill="#FFFFFF">
                        <text id="Thêm-vào-giỏ-hàng" font-family="Roboto-Bold, Roboto" font-size="11" font-weight="bold" line-spacing="17" letter-spacing="0.6875">
                            <tspan x="19.0812988" y="10">Thêm vào giỏ hàng</tspan>
                        </text>
                        <g id="cart" transform="translate(0.000000, 3.000000)" fill-rule="nonzero">
                            <path d="M13.6295754,1.89193636 C13.4438435,1.66017273 13.1677878,1.52727273 12.872261,1.52727273 L2.31859225,1.52727273 L2.22434713,0.846109091 C2.15760482,0.363763636 1.74308854,0 1.26012624,0 L0.432689225,0 C0.1937366,0 -1.50990331e-14,0.195381818 -1.50990331e-14,0.436363636 C-1.50990331e-14,0.677345455 0.1937366,0.872727273 0.432689225,0.872727273 L1.26012624,0.872727273 C1.3137797,0.872727273 1.3598611,0.913145455 1.36724386,0.966736364 L2.5352073,9.40843636 C2.60194961,9.89080909 3.01646589,10.2545455 3.49942819,10.2545455 L3.96859852,10.2545455 C3.92057002,10.3911273 3.89417598,10.5379364 3.89417598,10.6909091 C3.89417598,11.4127364 4.47649455,12 5.19224365,12 C5.90799276,12 6.49031133,11.4127364 6.49031133,10.6909091 C6.49031133,10.5379364 6.46391728,10.3911273 6.41588878,10.2545455 L8.72818,10.2545455 C8.68015149,10.3911273 8.65375745,10.5379364 8.65375745,10.6909091 C8.65375745,11.4127364 9.23607602,12 9.95182512,12 C10.6675742,12 11.2498928,11.4127364 11.2498928,10.6909091 C11.2498928,10.5379364 11.2234988,10.3911273 11.1754702,10.2545455 L12.1152983,10.2545455 C12.3542509,10.2545455 12.5479875,10.0591636 12.5479875,9.81818182 C12.5479875,9.5772 12.3542509,9.38181818 12.1152983,9.38181818 L3.49945523,9.38181818 C3.44580177,9.38181818 3.39972037,9.3414 3.39233761,9.28780909 L3.28459799,8.50909091 L11.8059255,8.50909091 C12.2618177,8.50909091 12.6621904,8.18277273 12.757977,7.73296364 L13.8242585,2.71486364 C13.8862142,2.42356364 13.8152531,2.12361818 13.6295754,1.89193636 L13.6295754,1.89193636 Z M5.62495992,10.6909091 C5.62495992,10.9315091 5.43084472,11.1272727 5.19227069,11.1272727 C4.95369667,11.1272727 4.75958147,10.9315091 4.75958147,10.6909091 C4.75958147,10.4503091 4.95369667,10.2545455 5.19227069,10.2545455 C5.43084472,10.2545455 5.62495992,10.4502818 5.62495992,10.6909091 Z M10.3845414,10.6909091 C10.3845414,10.9315091 10.1904262,11.1272727 9.95185217,11.1272727 C9.71327814,11.1272727 9.51916294,10.9315091 9.51916294,10.6909091 C9.51916294,10.4503091 9.71327814,10.2545455 9.95185217,10.2545455 C10.1904262,10.2545455 10.3845414,10.4502818 10.3845414,10.6909091 Z M12.9781076,2.53191818 L11.9118532,7.54990909 C11.9011983,7.59998182 11.8566313,7.63633636 11.8059255,7.63633636 L3.16382361,7.63633636 L2.43933959,2.39997273 L12.872234,2.39997273 C12.9150432,2.39997273 12.9417077,2.42200909 12.9565273,2.4405 C12.9713198,2.45896364 12.9870589,2.48980909 12.9781076,2.53191818 L12.9781076,2.53191818 Z" id="Shape"></path>
                        </g>
                    </g>
                </g>
                <text id="300.000-đ-copy" font-family="Roboto-Bold, Roboto" font-size="20" font-weight="bold" line-spacing="17" letter-spacing="1.25" fill="#333333">
                    <tspan x="217" y="99">300.000 đ</tspan>
                </text>
                <path d="M0.5,31.5 L0.5,235.5 L176,235.5 C177.932997,235.5 179.5,233.932997 179.5,232 L179.5,35 C179.5,33.0670034 177.932997,31.5 176,31.5 L0.5,31.5 Z" id="Rectangle-Copy-75" stroke="#979797" fill="#FFFFFF"></path>
                <rect id="Rectangle-Copy-78" stroke="#979797" stroke-width="0.5" x="217.25" y="236.25" width="149.5" height="129.5" rx="2"></rect>
                <line x1="217.5" y1="60.5" x2="332.5" y2="60.5" id="Line-2-Copy" stroke="#979797" stroke-linecap="square"></line>
                <line x1="217.5" y1="147.5" x2="363.5" y2="147.25" id="Line-2-Copy-5" stroke="#979797" stroke-linecap="square"></line>
                <g id="Group-76-Copy" transform="translate(228.000000, 246.000000)">
                    <rect id="Rectangle-Copy-36" fill="url(#linearGradient-1)" x="0" y="0" width="54" height="20" rx="1"></rect>
                    <g id="Group-73" transform="translate(7.600000, 4.000000)" fill="#FFFFFF" fill-rule="nonzero">
                        <path d="M35.0670235,7.47618026 C35.2201196,7.0329859 35.6540762,6.75 36.1647316,6.75 C36.6652342,6.75 37.1343737,7.05570202 37.2875704,7.47618026 L37.3125,7.5 L35.0625,7.5 L35.0670235,7.47618026 Z M37.8426393,8.21667786 C37.849692,8.21667786 37.849692,8.21667786 37.8609355,8.21667786 C37.8681926,8.21667786 37.8681926,8.21667786 37.8681926,8.21667786 C37.9720413,8.21449548 38.0625,8.11109208 38.0625,8.00529845 C38.0625,7.99147669 38.0620911,7.97952555 38.061069,7.97848632 C38.0614779,7.97848632 38.0614779,7.97848632 38.0614779,7.96632732 C38.0614779,6.87025131 37.2191384,6 36.1810606,6 C35.1456403,6 34.3125,6.87025131 34.3125,7.96632732 C34.3125,8.05060889 34.3125,8.13405907 34.3275253,8.21636609 L34.3287519,8.21667786 L34.3359068,8.24058015 C34.3869113,8.62655022 34.5460573,8.98134339 34.8055768,9.27211998 L34.8055768,9.27211998 C35.0912628,9.5978147 35.4803887,9.82571787 35.9215411,9.90542682 L35.9215411,9.90542682 L35.9215411,9.90542682 L35.9475033,9.90542682 C35.9734654,9.90542682 35.9773495,9.90542682 35.9994276,9.91093474 C36.5703909,9.98409654 37.085239,9.90542682 37.5049267,9.68375903 C37.6087753,9.62764061 37.7125218,9.56185734 37.7902039,9.50906445 C37.8163705,9.48318762 37.8421282,9.45876571 37.8682948,9.45211464 C37.8682948,9.43039473 37.8815825,9.43039473 37.8922127,9.43039473 C37.9788896,9.32480895 37.9938127,9.29144966 37.9259431,9.19241103 C37.8682948,9.08682525 37.816166,9.00825945 37.7644461,8.9285505 C37.7382795,8.90267367 37.734191,8.87575761 37.7125218,8.86494962 C37.7125218,8.84988078 37.7125218,8.84988078 37.712113,8.84988078 C37.7096598,8.84988078 37.7096598,8.84988078 37.7065934,8.84988078 L37.7053669,8.84988078 C37.6511939,8.77017183 37.6086731,8.77017183 37.5567488,8.82296472 C37.5540913,8.82296472 37.5305822,8.84988078 37.5301734,8.84988078 C37.1152897,9.21932709 36.5443265,9.34424255 35.9840956,9.21932709 C35.8781005,9.19241103 35.7889705,9.15998705 35.6879838,9.11374131 C35.3445473,8.9285505 35.0912628,8.61189708 35.0131719,8.24245077 L35.0131719,8.21657394 L37.8426393,8.21657394 L37.8426393,8.21667786 Z M30.5625,7.47618026 C30.715877,7.0329859 31.1498243,6.75 31.6647402,6.75 C32.1688804,6.75 32.6330398,7.05570202 32.7900423,7.47618026 L32.8125,7.5 L30.5625,7.5 L30.5625,7.47618026 Z M33.3421879,8.21667786 C33.3499432,8.21667786 33.3499432,8.21667786 33.361168,8.21667786 C33.3628007,8.21667786 33.3628007,8.21667786 33.3628007,8.21667786 C33.466477,8.21449548 33.5625,8.11109208 33.5625,8.00529845 C33.5625,7.99147669 33.5620918,7.97952555 33.5610714,7.97848632 C33.5612755,7.97848632 33.5612755,7.97848632 33.5612755,7.96632732 C33.5612755,6.87025131 32.7146198,6 31.6802039,6 C30.650584,6 29.8125,6.87025131 29.8125,7.96632732 C29.8125,8.05060889 29.8125,8.13405907 29.833623,8.21636609 L29.8350516,8.21667786 L29.8392354,8.24058015 C29.8910736,8.62655022 30.046486,8.98134339 30.3055746,9.27211998 L30.3055746,9.27211998 C30.589766,9.5978147 30.9792664,9.82571787 31.4188702,9.90542682 L31.4188702,9.90542682 L31.4188702,9.90542682 L31.4459118,9.90542682 C31.4707084,9.90542682 31.4807087,9.90542682 31.4972397,9.91093474 C32.0672552,9.98409654 32.5854326,9.90542682 33.0000357,9.68375903 C33.1043243,9.62764061 33.2072863,9.56185734 33.2848394,9.50906445 C33.3109625,9.48318762 33.3366775,9.45876571 33.3628007,9.45211464 C33.3628007,9.43039473 33.3817808,9.43039473 33.3885157,9.43039473 C33.4789263,9.32480895 33.4919879,9.29144966 33.4258636,9.19241103 C33.3628007,9.08682525 33.3109625,9.00825945 33.2591244,8.9285505 C33.2332053,8.90267367 33.2327972,8.87575761 33.2072863,8.86494962 C33.2072863,8.84988078 33.2072863,8.84988078 33.2072863,8.84988078 C33.2072863,8.84988078 33.2072863,8.84988078 33.2068781,8.84988078 L33.2058576,8.84988078 C33.1516725,8.77017183 33.10361,8.77017183 33.0517718,8.82296472 L33.0254446,8.84988078 C32.6108415,9.21932709 32.040928,9.34424255 31.4874435,9.21932709 C31.3815223,9.19241103 31.2898871,9.15998705 31.186517,9.11374131 C30.8484466,8.9285505 30.589766,8.61189708 30.5133354,8.24245077 L30.5128252,8.21657394 L33.3421879,8.21657394 L33.3421879,8.21667786 Z M27.1934479,9.375 C26.4786582,9.375 25.8957654,8.81514148 25.875,8.09443789 L25.875,8.02793564 C25.8957654,7.32152005 26.4786582,6.75 27.1934479,6.75 C27.9095941,6.75 28.5,7.33969523 28.5,8.06848835 C28.5001043,8.78814136 27.9096985,9.375 27.1934479,9.375 M27.2800248,6 C26.8155824,6 26.3820755,6.15756303 26.0347391,6.44675575 L25.9900204,6.4893236 L25.9900204,6.12326078 C25.9900204,6.01828764 25.9761351,6 25.8748541,6 L25.4307291,6 C25.3303671,6 25.3125,6.01839096 25.3125,6.12326078 L25.3125,11.8844882 C25.3125,11.9739634 25.3303671,12 25.4307291,12 L25.8748541,12 C25.973991,12 25.9900204,11.9739634 25.9900204,11.8844882 L25.9900204,9.48136796 L26.0347391,9.50812784 C26.3822797,9.79618405 26.8155824,9.95364375 27.2800248,9.95364375 C28.3685905,9.95364375 29.25,9.07170409 29.25,7.98663728 C29.25,6.8847293 28.3685905,6 27.2800248,6 M22.6876566,9.1875 C21.9580897,9.1875 21.375,8.64438291 21.375,7.96875 C21.375,7.29331487 21.9581941,6.75 22.6876566,6.75 C23.4160751,6.75 24,7.29331487 24,7.96875 C24.0001044,8.64428402 23.4160751,9.1875 22.6876566,9.1875 M22.593546,6 C21.5056895,6 20.625,6.87157688 20.625,7.97202856 C20.625,9.06571496 21.5056895,9.9375 22.593546,9.9375 C23.6813005,9.9375 24.5625,9.06571496 24.5625,7.97202856 C24.5625,6.87157688 23.6813005,6 22.593546,6 M18.187604,6.08719121 C17.7892432,6.08719121 17.3951469,6.21033906 17.0679294,6.44706891 L17.0287173,6.47939145 L17.0287173,3.87133538 C17.0287173,3.7753747 16.9991783,3.75 16.9105612,3.75 L16.4314882,3.75 C16.3388147,3.75 16.3125,3.7753747 16.3125,3.87133538 L16.3125,9.80951887 C16.3125,9.91142045 16.3389187,9.9375 16.4314882,9.9375 L16.9105612,9.9375 C16.9991783,9.9375 17.0287173,9.90698994 17.0287173,9.80951887 L17.0287173,7.8660383 C17.0388064,7.25684409 17.5536591,6.76717278 18.187708,6.76717278 C18.8334061,6.76717278 19.349403,7.26288569 19.349403,7.87681248 L19.349403,9.80951887 C19.349403,9.91142045 19.3677089,9.9375 19.4684952,9.9375 L19.9439279,9.9375 C20.0494987,9.9375 20.0625,9.91142045 20.0625,9.80951887 L20.0625,7.86583691 C20.062396,6.89434836 19.2173095,6.08719121 18.187604,6.08719121 M11.770853,8.85592927 L11.7697498,8.86005808 C11.7012518,8.95663197 11.6707637,8.99147511 11.6571242,9.01745641 C11.6059763,9.09368835 11.6140998,9.13346592 11.6945324,9.1959016 C11.8738508,9.34927182 12.1151484,9.50274274 12.2745092,9.57988102 C12.7200974,9.80948318 13.1980793,9.91199854 13.7090566,9.93737562 C14.0379074,9.94110162 14.4576208,9.86084156 14.7634049,9.73335194 C15.3235243,9.47766777 15.679353,8.99137441 15.7399282,8.39672493 C15.8393155,7.4241382 15.2089932,6.81851213 13.5889093,6.3298019 L13.5878061,6.3294998 C12.8283103,6.0763332 12.4724815,5.74794167 12.4723812,5.3022315 C12.4970526,4.79811376 12.960693,4.41473856 13.588809,4.39288607 C14.0886541,4.39600785 14.5342424,4.54011343 14.9753176,4.82399435 C15.0687878,4.87525203 15.1070986,4.86346981 15.170883,4.77636197 C15.1800094,4.77293808 15.1963566,4.74695678 15.2839098,4.61936645 L15.2844112,4.61936645 C15.3615342,4.51624688 15.3870078,4.46589553 15.3873087,4.46589553 C15.4407632,4.36358158 15.4379551,4.32178996 15.3388686,4.26136834 C15.2472036,4.18443147 14.9864498,4.05684114 14.839525,3.99309633 C14.4195107,3.82653406 13.9867595,3.75 13.561831,3.75 C12.5860098,3.77537708 11.8226026,4.41483926 11.7717556,5.24926188 C11.7452791,5.84693243 12.050662,6.33211807 12.6876035,6.69011618 C12.8660193,6.79243013 13.5156976,7.0404609 13.8211808,7.12545398 C14.686984,7.38113815 15.1443061,7.84719027 15.0451194,8.40387482 C14.9660909,8.91453824 14.4381646,9.24715928 13.7051453,9.27082441 C13.1712016,9.24715928 12.6303379,9.05874452 12.1656946,8.71061526 C12.1635885,8.71031316 12.1520551,8.68835997 12.1275844,8.68453326 C12.0981994,8.65945829 12.0981994,8.65945829 12.0897751,8.65784705 C11.9997147,8.58221931 11.9381367,8.58362915 11.8854844,8.68453326 C11.8736502,8.68463397 11.8046507,8.79701818 11.770853,8.85592927" id="path7"></path>
                        <path d="M6.73721529,8.40111427 C6.67456586,8.93564932 6.34787587,9.36845323 5.84190631,9.5824251 C5.5583925,9.70097989 5.17977384,9.76594825 4.87607485,9.74663221 C4.40884241,9.72731617 3.9708408,9.61249997 3.56202812,9.40862228 C3.42060624,9.33139966 3.20267332,9.18663322 3.03641781,9.05146248 C2.99541928,9.0128304 2.98855129,8.99351436 3.01828465,8.953553 C3.03135057,8.93012452 3.06053951,8.88725537 3.12038312,8.80043704 C3.2116352,8.6724527 3.22139277,8.65554597 3.23110846,8.63913772 C3.2602974,8.59759785 3.30477179,8.59381772 3.35125633,8.62663422 C3.35762178,8.6330729 3.35762178,8.6330729 3.36113953,8.63618839 C3.36733747,8.64291785 3.36733747,8.64291785 3.3840049,8.65550443 C3.40121674,8.66858949 3.41369638,8.67482047 3.41675347,8.68221457 C3.85483884,9.02238457 4.3647868,9.21550343 4.8795926,9.23481947 C5.59415628,9.2252653 6.10766387,8.90657141 6.20226619,8.4140747 C6.29967433,7.87808576 5.87381732,7.41018066 5.04103215,7.14926873 C4.77866671,7.07204611 4.11841874,6.81046955 3.99651199,6.73769169 C3.42575723,6.40607891 3.1578639,5.97082414 3.1968104,5.43105507 C3.25523016,4.68508207 3.95388022,4.12986016 4.83687708,4.125 C5.22881293,4.125 5.62388964,4.20604429 5.99869741,4.3624419 C6.13387947,4.41947614 6.37513842,4.54912208 6.4553766,4.61109956 C6.50353625,4.64649153 6.51379636,4.68508207 6.48410488,4.72832508 C6.47422168,4.7547029 6.44515837,4.79399961 6.39498857,4.87824247 L6.39498857,4.87824247 C6.32182777,4.98890469 6.3191057,4.99351561 6.30583039,5.01785798 C6.2797823,5.05848397 6.24255279,5.06172408 6.19296928,5.03264617 C5.79236468,4.76238777 5.34050146,4.62713395 4.84680215,4.6174967 C4.23358314,4.62713395 3.77250676,4.98969394 3.74281529,5.48646925 C3.73670111,5.93273208 4.072688,6.25782311 4.80031761,6.50261757 C6.28024296,6.97554899 6.8447579,7.52807081 6.73721529,8.40111427 M4.96760063,0.5625 C5.92721911,0.5625 6.71117223,1.4776963 6.75,2.625 L3.1875,2.625 C3.22177209,1.4776963 4.00802395,0.5625 4.96760063,0.5625 M9.9375,2.93033107 C9.9375,2.81103496 9.84539062,2.71375631 9.72785303,2.71375631 L9.72017029,2.71375631 L7.41948169,2.71375631 C7.36127658,1.2055186 6.28510831,0 4.96872912,0 C3.65155661,0 2.57818586,1.2055186 2.52077407,2.71375631 L0.210440292,2.71375631 C0.0945728694,2.71639338 0.00263050365,2.81153726 0.00263050365,2.93033107 C0.00263050365,2.93719583 0.00263050365,2.94020963 0.00263050365,2.94707438 L0,2.94707438 L0.328144892,10.2219605 C0.328144892,10.2416339 0.331986263,10.2614748 0.331986263,10.2851247 C0.331986263,10.2897291 0.332612573,10.2911523 0.332612573,10.2998169 L0.332612573,10.3109512 L0.335034307,10.3148022 C0.38442932,10.821999 0.749944065,11.2263501 1.24948924,11.246149 L1.24948924,11.25 L8.57769663,11.25 C8.581538,11.25 8.58379272,11.25 8.58759233,11.25 C8.59327088,11.25 8.59327088,11.25 8.59744628,11.25 L8.61264475,11.25 L8.61264475,11.246149 C9.1192881,11.2338008 9.53411435,10.821999 9.57365542,10.3092351 L9.57365542,10.3092351 L9.57586838,10.2998169 C9.57586838,10.2950032 9.57586838,10.289771 9.57586838,10.2851247 C9.57586838,10.2703068 9.57970975,10.2608887 9.57970975,10.2454849 L9.9375,2.94020963 L9.9375,2.94020963 C9.9375,2.9375307 9.9375,2.93338673 9.9375,2.93033107" id="path2"></path>
                    </g>
                </g>
                <g id="Group-77-Copy" transform="translate(228.000000, 276.000000)">
                    <rect id="Rectangle-Copy-37" fill="#0E0F6F" x="0" y="0" width="54" height="20" rx="1"></rect>
                    <g id="Lazada_(2019)" transform="translate(7.600000, 5.600000)" fill-rule="nonzero">
                        <g id="g1006" stroke-linecap="square" stroke-linejoin="bevel" transform="translate(15.560784, 0.752941)" fill="#FFFFFF">
                            <polyline id="path33" points="0.0692917787 0.356265567 0.940923419 0.356265567 0.940923419 4.577731 2.44344932 4.577731 2.44344932 5.41101548 0.0729364827 5.41101548 0.0692917787 0.356265567"></polyline>
                            <path d="M4.46205464,1.62270882 C4.92385066,1.61689021 5.36161566,1.82876566 5.64558217,2.19535171 L5.64558217,1.69796109 L6.45876504,1.69796109 L6.45876504,5.41835258 L5.64558217,5.41835258 L5.64558217,4.92096197 C5.36161566,5.28754801 4.92385066,5.49942346 4.46205464,5.49360485 C3.44821279,5.49360485 2.67868627,4.62178045 2.67868627,3.55724306 C2.67868627,2.49269223 3.44821279,1.62270882 4.46205464,1.62270882 M4.60984539,2.36788097 C3.95152907,2.36788097 3.51563314,2.88915074 3.51563314,3.55724306 C3.51563314,4.22533538 3.95873837,4.74843271 4.60984539,4.74843271 C5.2608189,4.74843271 5.70392413,4.22716293 5.70392413,3.55724306 C5.70392413,2.88730975 5.26802821,2.36788097 4.60984539,2.36788097" id="path39"></path>
                            <polyline id="path45" points="7.09158178 4.77228499 9.02995021 2.44130568 7.12068601 2.44130568 7.12068601 1.69796109 10.0802391 1.69796109 10.0802391 2.35320678 8.14921348 4.67500799 10.124029 4.67500799 10.124029 5.41835258 7.09158178 5.41835258 7.09158178 4.77228499"></polyline>
                            <path d="M12.1918979,1.62270882 C12.6535604,1.61689021 13.0914589,1.82876566 13.3752919,2.19535171 L13.3752919,1.69796109 L14.1886082,1.69796109 L14.1886082,5.41835258 L13.3752919,5.41835258 L13.3752919,4.92096197 C13.0914589,5.28754801 12.6535604,5.49942346 12.1918979,5.49360485 C11.178056,5.49360485 10.4102651,4.62178045 10.4102651,3.55724306 C10.4102651,2.49269223 11.178056,1.62270882 12.1918979,1.62270882 M12.3395551,2.36788097 C11.6812388,2.36788097 11.2454764,2.88915074 11.2454764,3.55724306 C11.2454764,4.22533538 11.6885816,4.74843271 12.3395551,4.74843271 C12.9905286,4.74843271 13.4336338,4.22716293 13.4336338,3.55724306 C13.4336338,2.88730975 12.9978714,2.36788097 12.3395551,2.36788097" id="path51"></path>
                            <path d="M16.5117399,1.62270882 C16.9730019,1.61660802 17.4103664,1.8286044 17.6933984,2.19535171 L17.6933984,0.0570921141 L18.5065812,0.0570921141 L18.5065812,5.41835258 L17.6933984,5.41835258 L17.6933984,4.92096197 C17.4103664,5.28770927 16.9730019,5.49970566 16.5117399,5.49360485 C15.4978981,5.49360485 14.7283716,4.62178045 14.7283716,3.55724306 C14.7283716,2.49269223 15.4978981,1.62270882 16.5117399,1.62270882 M16.6593972,2.36788097 C16.0010809,2.36788097 15.5653184,2.88915074 15.5653184,3.55724306 C15.5653184,4.22533538 16.0102927,4.74843271 16.6593972,4.74843271 C17.3086351,4.74843271 17.7534759,4.22716293 17.7534759,3.55724306 C17.7534759,2.88730975 17.3177135,2.36788097 16.6593972,2.36788097" id="path57"></path>
                            <path d="M20.8297129,1.62270882 C21.2909749,1.61660802 21.7284729,1.8286044 22.0113714,2.19535171 L22.0113714,1.69796109 L22.8228187,1.69796109 L22.8228187,5.41835258 L22.0077667,5.41835258 L22.0077667,4.92096197 C21.7247348,5.28770927 21.2873703,5.49970566 20.8261083,5.49360485 C19.8122664,5.49360485 19.0427399,4.62178045 19.0427399,3.55724306 C19.0427399,2.49269223 19.8158711,1.62270882 20.8297129,1.62270882 M20.9775037,2.36788097 C20.3191874,2.36788097 19.8832914,2.88915074 19.8832914,3.55724306 C19.8832914,4.22533538 20.3282657,4.74843271 20.9775037,4.74843271 C21.6266081,4.74843271 22.0715824,4.22716293 22.0715824,3.55724306 C22.0715824,2.88730975 21.6356865,2.36788097 20.9775037,2.36788097" id="path63"></path>
                        </g>
                        <g id="g942">
                            <g id="g71" transform="translate(0.108479, 0.004857)" fill="url(#linearGradient-3)">
                                <path d="M6.14569432,9.93479792 C6.05852742,9.9353853 5.97272678,9.91314301 5.89687245,9.87031072 C5.24748362,9.4958232 0.437911188,6.49010015 0.256277963,6.39833483 C0.118048753,6.33404099 0.0236594822,6.20233033 0.00734656642,6.05113724 L0.00734656642,1.83517948 C0.00388760717,1.67780938 0.0819418015,1.52971205 0.213978792,1.44334661 L0.248812761,1.42350649 C0.714094536,1.13582926 2.27165859,0.188478432 2.51798477,0.0520794568 C2.57451119,0.0186457561 2.63888899,0.000680283581 2.70459662,0 C2.76620549,0.000694801895 2.82675779,0.0159964181 2.88126215,0.0446396382 C2.88126215,0.0446396382 5.06087177,1.46070649 5.39427377,1.58718431 C5.6282126,1.69431044 5.88330101,1.74770282 6.14072116,1.74342323 C6.43240692,1.74950036 6.7206315,1.67939267 6.97672184,1.54006516 C7.3026732,1.3689466 9.38524248,0.0520794568 9.4076308,0.0520794568 C9.46013132,0.0204707132 9.52046502,0.00414797806 9.58180064,0.00495995778 C9.64758113,0.00528082776 9.71203181,0.0232721522 9.76841249,0.0570393965 C10.0520647,0.213277222 11.9828524,1.39126697 12.0649551,1.44334661 C12.2007606,1.52500758 12.2830818,1.67215893 12.2814487,1.83022262 L12.2814487,6.04618038 C12.2661949,6.19773662 12.1715046,6.32986489 12.0326205,6.39337797 C11.8509818,6.4925695 7.05634702,9.49831071 6.39449797,9.86535387 C6.31915371,9.90992923 6.23331663,9.93387827 6.14569432,9.93479792" id="path69"></path>
                            </g>
                            <g id="g79" transform="translate(6.119989, 1.457415)" fill="url(#linearGradient-5)">
                                <path d="M0.109300184,8.48224664 L0.134184193,8.48224664 C0.22135109,8.48282766 0.307151734,8.46058538 0.382987845,8.41775308 C1.03239489,8.04326557 5.83947164,5.03754252 6.02111033,4.94577719 C6.15999443,4.8822641 6.25468482,4.75013583 6.26994235,4.5985796 L6.26994235,0.382621839 C6.27071551,0.311252235 6.25452087,0.240708773 6.22264165,0.176787159 L0.109300184,3.5222707 L0.109300184,8.48224664" id="path77"></path>
                            </g>
                            <g id="g970" transform="translate(3.178908, 5.754994) scale(-1, 1) translate(-3.178908, -5.754994) translate(0.041653, 1.488328)" fill="url(#linearGradient-7)">
                                <path d="M0.108135724,8.39187867 L0.132754624,8.39187867 C0.218992864,8.3924535 0.303879408,8.37044818 0.378907578,8.32807221 C1.02139598,7.9575744 5.7772592,4.98387366 5.95696275,4.89308598 C6.09436722,4.83024955 6.1880488,4.69952894 6.20314377,4.54958735 L6.20314377,0.378545471 C6.2039087,0.307936223 6.18788659,0.238144316 6.15634701,0.174903708 L0.108135724,3.48474521 L0.108135724,8.39187867" id="path968"></path>
                            </g>
                        </g>
                    </g>
                </g>
                <g id="Group-78-Copy" transform="translate(228.000000, 306.000000)">
                    <rect id="Rectangle-Copy-40" fill="#00AAF0" x="0" y="0" width="54" height="20" rx="1"></rect>
                    <g id="Group-24" transform="translate(10.800000, 4.000000)">
                        <g id="Group-3" transform="translate(5.714286, 4.303238)">
                            <mask id="mask-9" fill="white">
                                <use xlink:href="#path-8"></use>
                            </mask>
                            <g id="Clip-2"></g>
                            <path d="M0.785974603,0.0211809524 C0.365212698,0.0211809524 0.0240698413,0.36232381 0.0240698413,0.783085714 L0.0240698413,6.92067302 C0.0240698413,7.34137143 0.365212698,7.68257778 0.785974603,7.68257778 C1.20673651,7.68257778 1.54787937,7.34137143 1.54787937,6.92067302 L1.54787937,0.783085714 C1.54787937,0.36232381 1.20673651,0.0211809524 0.785974603,0.0211809524" id="Fill-1" fill="#FFFFFF" mask="url(#mask-9)"></path>
                        </g>
                        <path d="M25.0121651,4.29738413 C24.6870222,4.29738413 24.4102603,4.50138413 24.3008,4.78811429 L22.6604825,9.06119365 L20.9743873,4.77376508 C20.9724825,4.76900317 20.9707683,4.76405079 20.9687365,4.75928889 L20.9594032,4.73560635 L20.9576889,4.73636825 C20.8360381,4.47725714 20.5735619,4.29738413 20.2683556,4.29738413 C19.8475302,4.29738413 19.5064508,4.63852698 19.5064508,5.05928889 C19.5064508,5.14068571 19.5194667,5.21903492 19.5431492,5.29255873 L19.5413079,5.29332063 L21.8933079,11.2740825 C21.9508952,11.6455746 22.2712127,11.9302095 22.6588317,11.9302095 C23.0258794,11.9302095 23.332673,11.6749714 23.413181,11.3324317 L23.4198476,11.3349714 L25.7240381,5.33262222 L25.7228317,5.33217778 C25.7554667,5.24735238 25.7740698,5.15560635 25.7740698,5.05928889 C25.7740698,4.63852698 25.432927,4.29738413 25.0121651,4.29738413" id="Fill-4" fill="#FFFFFF"></path>
                        <g id="Group-8" transform="translate(8.253968, 4.239746)">
                            <mask id="mask-11" fill="white">
                                <use xlink:href="#path-10"></use>
                            </mask>
                            <g id="Clip-7"></g>
                            <path d="M5.67048889,6.37841905 L3.00826667,3.6219746 L5.3088381,1.32146667 L5.30706032,1.31968889 C5.42382222,1.18578413 5.49512381,1.01118095 5.49512381,0.819561905 C5.49512381,0.398736508 5.15398095,0.0576571429 4.73321905,0.0576571429 C4.5416,0.0576571429 4.36693333,0.128895238 4.23309206,0.245720635 L4.23131429,0.243942857 L1.53525079,2.94006984 L1.53525079,0.846609524 C1.53525079,0.425784127 1.19410794,0.0847047619 0.773346032,0.0847047619 C0.352520635,0.0847047619 0.0114412698,0.425784127 0.0114412698,0.846609524 L0.0114412698,6.98413333 C0.0114412698,7.40489524 0.352520635,7.7460381 0.773346032,7.7460381 C1.19410794,7.7460381 1.53525079,7.40489524 1.53525079,6.98413333 L1.53525079,5.09499048 L1.93061587,4.6996254 L4.60274286,7.46635556 L4.60375873,7.46540317 C4.74179048,7.6043873 4.93290159,7.69048254 5.14420317,7.69048254 C5.56502857,7.69048254 5.90610794,7.34933968 5.90610794,6.92857778 C5.90610794,6.71206984 5.81544127,6.51714921 5.67048889,6.37841905" id="Fill-6" fill="#FFFFFF" mask="url(#mask-11)"></path>
                        </g>
                        <path d="M18.1274921,10.406419 C17.7067302,10.406419 17.3655873,10.7474984 17.3655873,11.1683238 C17.3655873,11.5890857 17.7067302,11.9302286 18.1274921,11.9302286 C18.5483175,11.9302286 18.8893968,11.5890857 18.8893968,11.1683238 C18.8893968,10.7474984 18.5483175,10.406419 18.1274921,10.406419" id="Fill-9" fill="#FFFFFF"></path>
                        <g id="Group-13" transform="translate(14.666667, 4.303238)">
                            <mask id="mask-13" fill="white">
                                <use xlink:href="#path-12"></use>
                            </mask>
                            <g id="Clip-12"></g>
                            <path d="M0.813130159,0.0211809524 C0.392368254,0.0211809524 0.0512253968,0.36232381 0.0512253968,0.783085714 L0.0512253968,6.92067302 C0.0512253968,7.34137143 0.392368254,7.68257778 0.813130159,7.68257778 C1.23389206,7.68257778 1.57503492,7.34137143 1.57503492,6.92067302 L1.57503492,0.783085714 C1.57503492,0.36232381 1.23389206,0.0211809524 0.813130159,0.0211809524" id="Fill-11" fill="#FFFFFF" mask="url(#mask-13)"></path>
                        </g>
                        <g id="Group-16" transform="translate(26.158730, 4.303238)">
                            <mask id="mask-15" fill="white">
                                <use xlink:href="#path-14"></use>
                            </mask>
                            <g id="Clip-15"></g>
                            <path d="M5.56579683,0.0211809524 C5.14503492,0.0211809524 4.80389206,0.36232381 4.80389206,0.783085714 L4.80389206,4.82232381 L1.34795556,0.249244444 L1.34186032,0.253879365 C1.20332063,0.110577778 1.00941587,0.0211809524 0.794431746,0.0211809524 C0.373669841,0.0211809524 0.0325269841,0.36232381 0.0325269841,0.783085714 L0.0325269841,6.92067302 C0.0325269841,7.34137143 0.373669841,7.68257778 0.794431746,7.68257778 C1.21525714,7.68257778 1.55633651,7.34137143 1.55633651,6.92067302 L1.55633651,2.81133968 L4.92700317,7.27165714 C4.94630476,7.30130794 4.9676381,7.32937143 4.99074921,7.35591111 L5.02084444,7.39578413 L5.02452698,7.39305397 C5.16255873,7.53254603 5.35405079,7.61908571 5.56579683,7.61908571 C5.9651619,7.61908571 6.29214603,7.31165714 6.32452698,6.92067302 L6.32770159,6.92067302 L6.32770159,0.783085714 C6.32770159,0.36232381 5.98662222,0.0211809524 5.56579683,0.0211809524" id="Fill-14" fill="#FFFFFF" mask="url(#mask-15)"></path>
                        </g>
                        <g id="Group-19" transform="translate(0.000000, 4.303238)">
                            <mask id="mask-17" fill="white">
                                <use xlink:href="#path-16"></use>
                            </mask>
                            <g id="Clip-18"></g>
                            <path d="M4.66782222,0.0211809524 L0.76191746,0.0211809524 C0.341092063,0.0211809524 1.26984127e-05,0.36232381 1.26984127e-05,0.783085714 C1.26984127e-05,1.20384762 0.341092063,1.54499048 0.76191746,1.54499048 L1.95296508,1.54499048 L1.95296508,6.92067302 C1.95296508,7.34137143 2.29404444,7.68257778 2.71486984,7.68257778 C3.13563175,7.68257778 3.4767746,7.34137143 3.4767746,6.92067302 L3.4767746,1.54499048 L4.66782222,1.54499048 C5.08858413,1.54499048 5.42972698,1.20384762 5.42972698,0.783085714 C5.42972698,0.36232381 5.08858413,0.0211809524 4.66782222,0.0211809524" id="Fill-17" fill="#FFFFFF" mask="url(#mask-17)"></path>
                        </g>
                        <path d="M6.50026032,3.31893333 C5.71511746,3.31893333 5.07867302,2.64534603 5.07867302,1.8144254 C5.07867302,1.71055238 5.08857778,1.60915556 5.10749841,1.51125079 L7.89829206,1.54013968 C7.91378413,1.62909206 7.92184762,1.7207746 7.92184762,1.8144254 C7.92184762,2.64534603 7.28533968,3.31893333 6.50026032,3.31893333 M6.50026032,1.26984127e-05 C5.49816508,1.26984127e-05 4.68578413,0.812330159 4.68578413,1.8144254 C4.68578413,2.81652063 5.49816508,3.62890159 6.50026032,3.62890159 C7.50235556,3.62890159 8.31467302,2.81652063 8.31467302,1.8144254 C8.31467302,0.812330159 7.50235556,1.26984127e-05 6.50026032,1.26984127e-05" id="Fill-20" fill="#FFFFFF"></path>
                        <path d="M15.4797968,3.31893333 C14.694654,3.31893333 14.0582095,2.64534603 14.0582095,1.8144254 C14.0582095,1.71055238 14.0681778,1.60915556 14.0870984,1.51125079 L16.8778286,1.54013968 C16.8933206,1.62909206 16.9013841,1.7207746 16.9013841,1.8144254 C16.9013841,2.64534603 16.2648762,3.31893333 15.4797968,3.31893333 M15.4797968,1.26984127e-05 C14.4777016,1.26984127e-05 13.6653841,0.812330159 13.6653841,1.8144254 C13.6653841,2.81652063 14.4777016,3.62890159 15.4797968,3.62890159 C16.4818921,3.62890159 17.2942095,2.81652063 17.2942095,1.8144254 C17.2942095,0.812330159 16.4818921,1.26984127e-05 15.4797968,1.26984127e-05" id="Fill-22" fill="#FFFFFF"></path>
                    </g>
                </g>
                <g id="Group-79-Copy" transform="translate(228.000000, 336.000000)">
                    <rect id="Rectangle-Copy-73" fill="#ED1C24" x="0" y="0" width="54" height="20" rx="1"></rect>
                    <g id="Group-20" transform="translate(7.600000, 5.200000)">
                        <g id="Group-3" transform="translate(0.000000, 0.337956)">
                            <mask id="mask-19" fill="white">
                                <use xlink:href="#path-18"></use>
                            </mask>
                            <g id="Clip-2"></g>
                            <path d="M0.610596056,6.88973521 C1.11935099,7.19495211 1.84444394,7.43670986 2.63317634,7.43670986 C3.3454693,7.43670986 3.99448338,7.10589296 3.99448338,6.44443944 C3.99448338,5.94830423 3.62544676,5.64308732 2.83671437,5.22321127 C1.9335031,4.73987606 1.06851155,4.06562254 1.06851155,2.95887324 C1.06851155,1.21627042 2.5695369,0.173160563 4.43959887,0.173160563 C5.48270873,0.173160563 6.09332282,0.40211831 6.46217915,0.592856338 L5.88978479,2.11948169 C5.60980732,1.9667831 4.99937352,1.73764507 4.29970028,1.75044507 C3.43470873,1.75044507 2.98941296,2.17032113 2.98941296,2.64085634 C2.98941296,3.13699155 3.51096789,3.45500845 4.23606085,3.86226479 C5.2791707,4.39643944 5.94062423,5.09611268 5.94062423,6.12660282 C5.94062423,8.03470423 4.36315944,9.01399437 2.45505803,9.01399437 C1.25942986,9.00137465 0.407058028,8.69615775 -1.8028169e-05,8.40338028 L0.610596056,6.88973521 Z" id="Fill-1" fill="#FFFFFF" mask="url(#mask-19)"></path>
                        </g>
                        <path d="M9.56596282,4.18736676 C8.71359099,4.18736676 8.21745577,4.89984 8.09035718,5.47205408 C9.5277431,5.48485408 10.2400361,5.29411606 10.2400361,4.70892169 C10.2400361,4.40370479 9.98565859,4.18736676 9.56596282,4.18736676 L9.56596282,4.18736676 Z M11.181467,8.85594141 C10.4563741,9.22479775 9.55316282,9.35189634 8.85348958,9.35189634 C7.08528676,9.35189634 6.16945577,8.3470062 6.16945577,6.71888225 C6.16945577,4.82340056 7.54320225,2.85165972 9.79492056,2.85165972 C11.0541882,2.85165972 11.9573994,3.56395268 11.9573994,4.72154141 C11.9573994,6.2990062 10.4183346,6.87158085 7.91223887,6.80776113 C7.92485859,6.98587944 7.98849803,7.2658569 8.1157769,7.44379493 C8.35735437,7.76181183 8.77723042,7.92731042 9.31140507,7.92731042 C9.98565859,7.92731042 10.558053,7.77461183 11.0541882,7.53303437 L11.181467,8.85594141 Z" id="Fill-4" fill="#FFFFFF"></path>
                        <path d="M11.5757431,9.21219606 L12.3644755,5.01415662 C12.5297938,4.22542423 12.6552699,3.41145239 12.744329,2.85167775 L14.3598332,2.85167775 L14.2089375,4.0218862 L14.2343572,4.0218862 C14.8195515,3.22053408 15.5828642,2.85167775 16.4096361,2.85167775 C17.4273262,2.85167775 18.0125206,3.47491155 18.0125206,4.55624113 C18.0125206,4.83621859 17.9615008,5.29413408 17.9106614,5.59935099 L17.2237882,9.21219606 L15.3793262,9.21219606 L16.0407797,5.7646693 C16.0789994,5.54851155 16.1044192,5.3067538 16.1044192,5.07779606 C16.1044192,4.63268056 15.9517206,4.32728338 15.4810051,4.32728338 C14.883191,4.32728338 14.1835177,5.07779606 13.9291403,6.45154254 L13.4075854,9.21219606 L11.5757431,9.21219606 Z" id="Fill-6" fill="#FFFFFF"></path>
                        <g id="Group-10" transform="translate(18.028169, 0.157674)">
                            <mask id="mask-21" fill="white">
                                <use xlink:href="#path-20"></use>
                            </mask>
                            <g id="Clip-9"></g>
                            <path d="M4.64,4.29686986 C4.48730141,4.16959099 4.20750423,4.08053183 3.91508732,4.08053183 C2.80833803,4.08053183 2.03222535,5.35259944 2.03222535,6.54840789 C2.03222535,7.29892056 2.36304225,7.71879662 2.88459718,7.71879662 C3.41895211,7.71879662 4.06760563,7.15902197 4.30936338,5.96321352 L4.64,4.29686986 Z M7.26057465,0.0227515493 L6.00130704,6.63746704 C5.84842817,7.42619944 5.7339493,8.3166107 5.70870986,9.05450366 L4.02938592,9.05450366 L4.11844507,8.04961352 L4.09302535,8.04961352 C3.5460507,8.87638535 2.78273803,9.19440225 2.04484507,9.19440225 C0.989115493,9.19440225 0.124123944,8.35483042 0.124123944,6.84100507 C0.124123944,4.6785262 1.68878873,2.68136563 4.04218592,2.68136563 C4.29656338,2.68136563 4.62738028,2.73220507 4.89437746,2.83388394 L5.44135211,0.0227515493 L7.26057465,0.0227515493 Z" id="Fill-8" fill="#FFFFFF" mask="url(#mask-21)"></path>
                        </g>
                        <path d="M26.4590242,6.74422986 C26.4590242,7.46932282 26.8152608,7.95265803 27.4639144,7.95265803 C28.4435651,7.95265803 29.0159594,6.47723268 29.0159594,5.42132282 C29.0159594,4.84892845 28.7614017,4.23831437 28.036489,4.23831437 C26.9805792,4.23831437 26.4590242,5.77755944 26.4590242,6.74422986 M30.9112608,5.40852282 C30.9112608,7.68566085 29.3467763,9.35200451 27.1969172,9.35200451 C25.6194524,9.35200451 24.5635425,8.32169465 24.5635425,6.76982986 C24.5635425,4.61979042 26.0645679,2.83896789 28.2780665,2.83896789 C29.9445904,2.83896789 30.9112608,3.98375662 30.9112608,5.40852282" id="Fill-11" fill="#FFFFFF"></path>
                        <path d="M30.5514546,8.75902197 C30.5514546,8.41738817 30.7998828,8.12569239 31.1535955,8.12569239 C31.4577307,8.12569239 31.6688406,8.34293183 31.6688406,8.65950648 C31.6688406,9.0197093 31.4142828,9.27408676 31.0481307,9.27408676 C30.7503054,9.27408676 30.5514546,9.05684732 30.5514546,8.75902197" id="Fill-13" fill="#FFFFFF"></path>
                        <path d="M32.9343639,6.10814197 L33.0832766,7.49378704 C33.115547,7.8821138 33.1479977,8.12170817 33.1672879,8.35481239 L33.1867583,8.35481239 C33.2709499,8.12819831 33.3681217,7.88860394 33.5429949,7.50027718 L34.1775865,6.10814197 L35.2197949,6.10814197 L33.4586231,9.27424901 L32.5070963,9.27424901 L31.9761668,6.10814197 L32.9343639,6.10814197 Z" id="Fill-15" fill="#FFFFFF"></path>
                        <g id="Group-19" transform="translate(34.974648, 5.926688)">
                            <mask id="mask-23" fill="white">
                                <use xlink:href="#path-22"></use>
                            </mask>
                            <g id="Clip-18"></g>
                            <path d="M0.0680022535,3.34747042 L0.468948732,1.21437746 C0.552779718,0.813611268 0.598030423,0.471076056 0.643281127,0.186591549 L1.46428394,0.186591549 L1.40605296,0.710129577 L1.41903324,0.710129577 C1.71649803,0.302873239 2.10428394,0.115560563 2.52434028,0.115560563 C3.04156845,0.115560563 3.33885296,0.432135211 3.33885296,0.981633803 C3.33885296,1.12387606 3.31307268,1.35661972 3.28711211,1.51166197 L2.93808676,3.34747042 L2.00080225,3.34747042 L2.33702761,1.59567324 C2.35631775,1.48588169 2.36929803,1.36292958 2.36929803,1.24664789 C2.36929803,1.02057465 2.2917769,0.865171831 2.0525431,0.865171831 C1.74858817,0.865171831 1.39325296,1.24664789 1.26399099,1.94487887 L0.99879662,3.34747042 L0.0680022535,3.34747042 Z" id="Fill-17" fill="#FFFFFF" mask="url(#mask-23)"></path>
                        </g>
                    </g>
                </g>
                <line x1="217.5" y1="126.5" x2="363.5" y2="126.5" id="Line-2-Copy-4" stroke="#979797" stroke-linecap="square"></line>
                <line x1="228" y1="271" x2="355.5" y2="271.5" id="Line-2-Copy-6" stroke="#979797" stroke-width="0.5" stroke-linecap="square"></line>
                <line x1="228" y1="300.75" x2="355.5" y2="301.25" id="Line-2-Copy-7" stroke="#979797" stroke-width="0.5" stroke-linecap="square"></line>
                <line x1="228" y1="330.75" x2="355.5" y2="331.25" id="Line-2-Copy-8" stroke="#979797" stroke-width="0.5" stroke-linecap="square"></line>
            </g>
        </g>
    </g>
</svg>